# xmcd CD database file
#
# Track frame offsets:
#	150
#	15780
#	34401
#	56235
#	81596
#	103207
#	122267
#	141307
#	154747
#	170885
#
# Disc length: 2533 seconds
#
# Revision: 0
# Processed by: cddbd v1.4PL0 Copyright (c) Steve Scherf et al.
# Submitted via: CDex 1.50beta10
#
DISCID=8809e30a
DTITLE=Robert "Bilbo" Walker - Rompin' and Stompin'
DYEAR=1998
DGENRE=Blues
TTITLE0=Baby How Long
TTITLE1=Take Yo' Hand Off A Me
TTITLE2=Mustang Sally
TTITLE3=Cut You A Loose
TTITLE4=Something On Your Mind
TTITLE5=Mel's Hideaway
TTITLE6=Shake For Me
TTITLE7=Moanin' At Midnight
TTITLE8=I've Been A Fool
TTITLE9=Mystery Train
EXTD=YEAR: 1998
EXTT0=
EXTT1=
EXTT2=
EXTT3=
EXTT4=
EXTT5=
EXTT6=
EXTT7=
EXTT8=
EXTT9=
PLAYORDER=
